<mxfile host="app.diagrams.net" modified="2021-04-01T22:11:48.439Z" agent="5.0 (Windows NT 10.0; Win64; x64) AppleWebKit/537.36 (KHTML, like Gecko) Chrome/89.0.4389.114 Safari/537.36" etag="hB2jmGuMRui4zEq60nOM" version="14.5.3" type="github">
  <diagram id="ACFHJaDp0CCpu47aHDbk" name="Page-1">
    <mxGraphModel dx="1422" dy="794" grid="0" gridSize="10" guides="1" tooltips="1" connect="1" arrows="1" fold="1" page="1" pageScale="1" pageWidth="850" pageHeight="1100" math="0" shadow="0">
      <root>
        <mxCell id="0" />
        <mxCell id="1" parent="0" />
        <mxCell id="2gQc0NYOQKcEP8dJCD8I-3" value="" style="whiteSpace=wrap;html=1;aspect=fixed;fillColor=#e1d5e7;strokeColor=#9673a6;" parent="1" vertex="1">
          <mxGeometry x="457" y="150" width="369" height="369" as="geometry" />
        </mxCell>
        <mxCell id="2gQc0NYOQKcEP8dJCD8I-4" value="" style="edgeStyle=orthogonalEdgeStyle;rounded=0;orthogonalLoop=1;jettySize=auto;html=1;strokeWidth=1;exitX=0.875;exitY=0.5;exitDx=0;exitDy=0;exitPerimeter=0;startArrow=classic;startFill=1;fillColor=#f8cecc;strokeColor=#b85450;" parent="1" source="2gQc0NYOQKcEP8dJCD8I-5" target="2gQc0NYOQKcEP8dJCD8I-9" edge="1">
          <mxGeometry relative="1" as="geometry" />
        </mxCell>
        <mxCell id="2gQc0NYOQKcEP8dJCD8I-5" value="Customer" style="ellipse;shape=cloud;whiteSpace=wrap;html=1;fillColor=#f8cecc;strokeColor=#b85450;" parent="1" vertex="1">
          <mxGeometry x="10" y="276" width="147" height="98" as="geometry" />
        </mxCell>
        <mxCell id="2gQc0NYOQKcEP8dJCD8I-6" value="" style="endArrow=none;html=1;strokeWidth=3;fillColor=#f8cecc;strokeColor=#b85450;" parent="1" edge="1">
          <mxGeometry width="50" height="50" relative="1" as="geometry">
            <mxPoint x="174" y="591" as="sourcePoint" />
            <mxPoint x="174" y="120" as="targetPoint" />
          </mxGeometry>
        </mxCell>
        <mxCell id="2gQc0NYOQKcEP8dJCD8I-7" value="" style="endArrow=none;html=1;strokeWidth=3;fillColor=#fff2cc;strokeColor=#d6b656;" parent="1" edge="1">
          <mxGeometry width="50" height="50" relative="1" as="geometry">
            <mxPoint x="395" y="589" as="sourcePoint" />
            <mxPoint x="395" y="120" as="targetPoint" />
          </mxGeometry>
        </mxCell>
        <mxCell id="WaRQv8ALURC7p492Pok6-5" value="" style="edgeStyle=orthogonalEdgeStyle;rounded=0;orthogonalLoop=1;jettySize=auto;html=1;" parent="1" source="2gQc0NYOQKcEP8dJCD8I-9" target="WaRQv8ALURC7p492Pok6-2" edge="1">
          <mxGeometry relative="1" as="geometry" />
        </mxCell>
        <mxCell id="2gQc0NYOQKcEP8dJCD8I-9" value="PKS DMZ Cluster to Host Service Provider" style="shape=process;whiteSpace=wrap;html=1;backgroundOutline=1;fillColor=#fff2cc;strokeColor=#d6b656;" parent="1" vertex="1">
          <mxGeometry x="226" y="294.5" width="106" height="61" as="geometry" />
        </mxCell>
        <mxCell id="2gQc0NYOQKcEP8dJCD8I-10" value="&lt;font style=&quot;font-size: 14px&quot;&gt;PCF&lt;/font&gt;" style="text;html=1;strokeColor=none;fillColor=none;align=center;verticalAlign=middle;whiteSpace=wrap;rounded=0;" parent="1" vertex="1">
          <mxGeometry x="585" y="150" width="40" height="20" as="geometry" />
        </mxCell>
        <mxCell id="2gQc0NYOQKcEP8dJCD8I-15" value="" style="aspect=fixed;perimeter=ellipsePerimeter;html=1;align=center;shadow=0;dashed=0;spacingTop=3;image;image=img/lib/active_directory/secure.svg;" parent="1" vertex="1">
          <mxGeometry x="185" y="290" width="17" height="26.56" as="geometry" />
        </mxCell>
        <mxCell id="2gQc0NYOQKcEP8dJCD8I-16" value="" style="aspect=fixed;perimeter=ellipsePerimeter;html=1;align=center;shadow=0;dashed=0;spacingTop=3;image;image=img/lib/active_directory/secure.svg;" parent="1" vertex="1">
          <mxGeometry x="417.28" y="321" width="13.44" height="21" as="geometry" />
        </mxCell>
        <mxCell id="2gQc0NYOQKcEP8dJCD8I-17" value="The internet" style="shape=callout;whiteSpace=wrap;html=1;perimeter=calloutPerimeter;fillColor=#f8cecc;strokeColor=#b85450;" parent="1" vertex="1">
          <mxGeometry x="23.5" y="40" width="120" height="60" as="geometry" />
        </mxCell>
        <mxCell id="2gQc0NYOQKcEP8dJCD8I-18" value="Dell DMZ" style="shape=callout;whiteSpace=wrap;html=1;perimeter=calloutPerimeter;fillColor=#fff2cc;strokeColor=#d6b656;" parent="1" vertex="1">
          <mxGeometry x="227" y="36" width="120" height="60" as="geometry" />
        </mxCell>
        <mxCell id="2gQc0NYOQKcEP8dJCD8I-19" value="Dell CORP/Core&amp;nbsp;" style="shape=callout;whiteSpace=wrap;html=1;perimeter=calloutPerimeter;fillColor=#d5e8d4;strokeColor=#82b366;" parent="1" vertex="1">
          <mxGeometry x="508.5" y="35" width="120" height="60" as="geometry" />
        </mxCell>
        <mxCell id="2gQc0NYOQKcEP8dJCD8I-31" value="" style="shape=process;whiteSpace=wrap;html=1;backgroundOutline=1;fillColor=#f5f5f5;strokeColor=#666666;fontColor=#333333;" parent="1" vertex="1">
          <mxGeometry x="515.5" y="414" width="190" height="99" as="geometry" />
        </mxCell>
        <mxCell id="2gQc0NYOQKcEP8dJCD8I-32" value="API 1" style="rounded=1;whiteSpace=wrap;html=1;" parent="1" vertex="1">
          <mxGeometry x="549" y="466" width="39" height="35.5" as="geometry" />
        </mxCell>
        <mxCell id="sr_w2F_qdbWmWLFcs-_W-18" value="" style="edgeStyle=orthogonalEdgeStyle;rounded=0;orthogonalLoop=1;jettySize=auto;html=1;dashed=1;" parent="1" source="2gQc0NYOQKcEP8dJCD8I-33" target="sr_w2F_qdbWmWLFcs-_W-17" edge="1">
          <mxGeometry relative="1" as="geometry" />
        </mxCell>
        <mxCell id="2gQc0NYOQKcEP8dJCD8I-33" value="API 2" style="rounded=1;whiteSpace=wrap;html=1;" parent="1" vertex="1">
          <mxGeometry x="625" y="464" width="38" height="39.5" as="geometry" />
        </mxCell>
        <mxCell id="2gQc0NYOQKcEP8dJCD8I-40" value="PCF Non-ISO" style="text;html=1;strokeColor=none;fillColor=none;align=center;verticalAlign=middle;whiteSpace=wrap;rounded=0;" parent="1" vertex="1">
          <mxGeometry x="539" y="419" width="130" height="20" as="geometry" />
        </mxCell>
        <mxCell id="sj-PamyHFuKPAxD5q3Vw-3" value="" style="image;html=1;image=img/lib/clip_art/networking/Firewall_02_128x128.png" parent="1" vertex="1">
          <mxGeometry x="413" y="260.5" width="22" height="34" as="geometry" />
        </mxCell>
        <mxCell id="sj-PamyHFuKPAxD5q3Vw-9" value="" style="image;html=1;image=img/lib/clip_art/networking/Firewall_02_128x128.png" parent="1" vertex="1">
          <mxGeometry x="571.5" y="349" width="46" height="41" as="geometry" />
        </mxCell>
        <mxCell id="_3BCGjxRRkY1fC-WPkbY-4" value="" style="group" parent="1" vertex="1" connectable="0">
          <mxGeometry x="503" y="187" width="183" height="131" as="geometry" />
        </mxCell>
        <mxCell id="2gQc0NYOQKcEP8dJCD8I-11" value="" style="shape=process;whiteSpace=wrap;html=1;backgroundOutline=1;fillColor=#dae8fc;strokeColor=#6c8ebf;" parent="_3BCGjxRRkY1fC-WPkbY-4" vertex="1">
          <mxGeometry width="183" height="131" as="geometry" />
        </mxCell>
        <mxCell id="2gQc0NYOQKcEP8dJCD8I-13" value="Proxy or Gateway" style="rounded=1;whiteSpace=wrap;html=1;" parent="_3BCGjxRRkY1fC-WPkbY-4" vertex="1">
          <mxGeometry x="30" y="48" width="50" height="50" as="geometry" />
        </mxCell>
        <mxCell id="2gQc0NYOQKcEP8dJCD8I-14" value="Web UI" style="rounded=1;whiteSpace=wrap;html=1;" parent="_3BCGjxRRkY1fC-WPkbY-4" vertex="1">
          <mxGeometry x="100" y="46" width="50" height="50" as="geometry" />
        </mxCell>
        <mxCell id="2gQc0NYOQKcEP8dJCD8I-36" value="PCF Isolation Segment (DMZ)" style="text;html=1;strokeColor=none;fillColor=none;align=center;verticalAlign=middle;whiteSpace=wrap;rounded=0;" parent="_3BCGjxRRkY1fC-WPkbY-4" vertex="1">
          <mxGeometry x="30" y="8" width="130" height="20" as="geometry" />
        </mxCell>
        <mxCell id="_3BCGjxRRkY1fC-WPkbY-5" value="" style="endArrow=classic;startArrow=classic;html=1;entryX=0.492;entryY=1.053;entryDx=0;entryDy=0;entryPerimeter=0;" parent="1" source="sj-PamyHFuKPAxD5q3Vw-9" target="2gQc0NYOQKcEP8dJCD8I-11" edge="1">
          <mxGeometry width="50" height="50" relative="1" as="geometry">
            <mxPoint x="605" y="368" as="sourcePoint" />
            <mxPoint x="655" y="318" as="targetPoint" />
          </mxGeometry>
        </mxCell>
        <mxCell id="_3BCGjxRRkY1fC-WPkbY-6" value="" style="endArrow=classic;startArrow=classic;html=1;entryX=0.427;entryY=-0.35;entryDx=0;entryDy=0;entryPerimeter=0;exitX=0.5;exitY=1;exitDx=0;exitDy=0;" parent="1" source="sj-PamyHFuKPAxD5q3Vw-9" target="2gQc0NYOQKcEP8dJCD8I-40" edge="1">
          <mxGeometry width="50" height="50" relative="1" as="geometry">
            <mxPoint x="651" y="376" as="sourcePoint" />
            <mxPoint x="665" y="328" as="targetPoint" />
          </mxGeometry>
        </mxCell>
        <mxCell id="_3BCGjxRRkY1fC-WPkbY-8" value="PCF Application Security Groups" style="text;html=1;strokeColor=none;fillColor=none;align=center;verticalAlign=middle;whiteSpace=wrap;rounded=0;" parent="1" vertex="1">
          <mxGeometry x="617.5" y="354" width="183" height="20" as="geometry" />
        </mxCell>
        <mxCell id="WaRQv8ALURC7p492Pok6-2" value="Ping IDP" style="shape=process;whiteSpace=wrap;html=1;backgroundOutline=1;fillColor=#f8cecc;strokeColor=#b85450;" parent="1" vertex="1">
          <mxGeometry x="236" y="178" width="85" height="51" as="geometry" />
        </mxCell>
        <mxCell id="WaRQv8ALURC7p492Pok6-6" value="" style="endArrow=classic;html=1;entryX=0;entryY=0.75;entryDx=0;entryDy=0;exitX=1;exitY=0.5;exitDx=0;exitDy=0;" parent="1" source="2gQc0NYOQKcEP8dJCD8I-9" target="2gQc0NYOQKcEP8dJCD8I-11" edge="1">
          <mxGeometry width="50" height="50" relative="1" as="geometry">
            <mxPoint x="310" y="324.5" as="sourcePoint" />
            <mxPoint x="370" y="276" as="targetPoint" />
          </mxGeometry>
        </mxCell>
        <mxCell id="wIA6svj5qr99vfCQ4pqc-3" value="OAuth2/SAML Token" style="edgeLabel;html=1;align=center;verticalAlign=middle;resizable=0;points=[];" parent="WaRQv8ALURC7p492Pok6-6" vertex="1" connectable="0">
          <mxGeometry x="-0.1084" relative="1" as="geometry">
            <mxPoint as="offset" />
          </mxGeometry>
        </mxCell>
        <mxCell id="sr_w2F_qdbWmWLFcs-_W-2" value="" style="endArrow=classic;startArrow=classic;html=1;exitX=1;exitY=0.75;exitDx=0;exitDy=0;dashed=1;" parent="1" source="WaRQv8ALURC7p492Pok6-2" target="2gQc0NYOQKcEP8dJCD8I-13" edge="1">
          <mxGeometry width="50" height="50" relative="1" as="geometry">
            <mxPoint x="399" y="431" as="sourcePoint" />
            <mxPoint x="449" y="381" as="targetPoint" />
            <Array as="points">
              <mxPoint x="419" y="187" />
            </Array>
          </mxGeometry>
        </mxCell>
        <mxCell id="sr_w2F_qdbWmWLFcs-_W-3" value="Token Validation" style="edgeLabel;html=1;align=center;verticalAlign=middle;resizable=0;points=[];" parent="sr_w2F_qdbWmWLFcs-_W-2" vertex="1" connectable="0">
          <mxGeometry x="0.1059" y="1" relative="1" as="geometry">
            <mxPoint as="offset" />
          </mxGeometry>
        </mxCell>
        <mxCell id="sr_w2F_qdbWmWLFcs-_W-4" value="1" style="ellipse;whiteSpace=wrap;html=1;" parent="1" vertex="1">
          <mxGeometry x="73.75" y="247" width="19.5" height="23" as="geometry" />
        </mxCell>
        <mxCell id="sr_w2F_qdbWmWLFcs-_W-5" value="2" style="ellipse;whiteSpace=wrap;html=1;" parent="1" vertex="1">
          <mxGeometry x="268.75" y="369" width="19.5" height="23" as="geometry" />
        </mxCell>
        <mxCell id="sr_w2F_qdbWmWLFcs-_W-6" value="3" style="ellipse;whiteSpace=wrap;html=1;" parent="1" vertex="1">
          <mxGeometry x="290" y="247" width="19.5" height="23" as="geometry" />
        </mxCell>
        <mxCell id="sr_w2F_qdbWmWLFcs-_W-7" value="4" style="ellipse;whiteSpace=wrap;html=1;" parent="1" vertex="1">
          <mxGeometry x="358" y="323" width="19.5" height="23" as="geometry" />
        </mxCell>
        <mxCell id="sr_w2F_qdbWmWLFcs-_W-11" value="5" style="ellipse;whiteSpace=wrap;html=1;" parent="1" vertex="1">
          <mxGeometry x="360" y="164" width="19.5" height="23" as="geometry" />
        </mxCell>
        <mxCell id="sr_w2F_qdbWmWLFcs-_W-14" value="6" style="ellipse;whiteSpace=wrap;html=1;" parent="1" vertex="1">
          <mxGeometry x="536" y="361" width="19.5" height="23" as="geometry" />
        </mxCell>
        <mxCell id="sr_w2F_qdbWmWLFcs-_W-15" value="7" style="ellipse;whiteSpace=wrap;html=1;" parent="1" vertex="1">
          <mxGeometry x="545" y="434" width="19.5" height="23" as="geometry" />
        </mxCell>
        <mxCell id="sr_w2F_qdbWmWLFcs-_W-17" value="DB" style="shape=cylinder3;whiteSpace=wrap;html=1;boundedLbl=1;backgroundOutline=1;size=15;" parent="1" vertex="1">
          <mxGeometry x="743" y="434" width="43" height="65" as="geometry" />
        </mxCell>
        <mxCell id="sr_w2F_qdbWmWLFcs-_W-19" value="8" style="ellipse;whiteSpace=wrap;html=1;" parent="1" vertex="1">
          <mxGeometry x="748" y="401" width="19.5" height="23" as="geometry" />
        </mxCell>
      </root>
    </mxGraphModel>
  </diagram>
</mxfile>
